<?xml version="1.0" encoding="UTF-8"?>
<!DOCTYPE svg PUBLIC "-//W3C//DTD SVG 1.1//EN" "http://www.w3.org/Graphics/SVG/1.1/DTD/svg11.dtd">
<!-- Creator: CorelDRAW -->
<svg xmlns="http://www.w3.org/2000/svg" xml:space="preserve" width="36.9732mm" height="36.9733mm" version="1.1" style="shape-rendering:geometricPrecision; text-rendering:geometricPrecision; image-rendering:optimizeQuality; fill-rule:evenodd; clip-rule:evenodd"
viewBox="0 0 481.33 481.33"
 xmlns:xlink="http://www.w3.org/1999/xlink"
 xmlns:xodm="http://www.corel.com/coreldraw/odm/2003">
 <defs>
  <style type="text/css">
   <![CDATA[
    .fil1 {fill:#FFCD75}
    .fil0 {fill:url(#id0);fill-rule:nonzero}
   ]]>
  </style>
  <linearGradient id="id0" gradientUnits="userSpaceOnUse" x1="-117.35" y1="-59.6" x2="608.49" y2="547.2">
   <stop offset="0" style="stop-opacity:1; stop-color:#000000"/>
   <stop offset="1" style="stop-opacity:1; stop-color:#000000"/>
  </linearGradient>
 </defs>
 <g id="Слой_x0020_1">
  <metadata id="CorelCorpID_0Corel-Layer"/>
  <path class="fil0" d="M240.66 481.33c-132.92,0 -240.66,-107.76 -240.66,-240.67 0,-132.92 107.74,-240.66 240.66,-240.66 132.91,0 240.67,107.74 240.67,240.66 0,132.91 -107.76,240.67 -240.67,240.67z"/>
  <path class="fil1" d="M205.9 222.37c-8.15,0 -13.13,-0.35 -10.61,-9.38 3.78,-13.52 22.62,-32.46 35.2,-39.23 14.89,-8 28.15,-1.06 42.91,5.51 12.28,5.46 21.5,8.62 33.15,13.21 8.67,3.42 7.18,0.34 12.72,15.34l19.61 54.81c-2.27,1.52 -9.36,6.72 -11.59,7.32 -0.01,-0 -18.29,-18.81 -23.18,-22.57l-5.02 -4.13c-9.5,-8.46 -21.16,-16.88 -30.49,-25.02l-7.27 -6.15c-12.36,-9.96 -8.63,-14.15 -25.32,-6.59 -1.93,0.87 -3.95,1.73 -5.87,2.06 -6.3,1.08 -5.7,0.16 -9.68,5.57 -1.22,1.66 -2.19,2.8 -3.72,4.21 -2.35,2.18 -6.58,5.02 -10.84,5.02zm-24.4 -7.32c0,6.72 -0.14,11.58 6.69,16.49 10.48,7.53 27.85,4.69 37.69,-4.43 6.29,-5.83 2.88,-5.57 7.89,-6.75 1.96,-0.46 3.43,-0.98 5.51,-1.81 6.46,-2.59 4.77,-4.79 15.57,5.51 6.99,6.66 26.02,21.25 34.8,28.63l4.95 4.2c6.02,4.69 25.36,21.4 25.36,29.54 0,4.81 -4.01,7.93 -7.93,7.93 -3.35,0 -8.34,-6.2 -11.74,-9.61l-21.35 -21.35c-3.1,-3.1 -8.24,-9.91 -11.44,-9.91 -5.12,0 -7.32,2.8 -7.32,7.32 0,3 2.15,4.3 3.82,5.94 1.95,1.92 2.61,3.26 4.56,5.2l30.05 30.34c-0.58,2.16 -1.44,2.91 -3.28,4.04 -9.5,5.89 -13.65,-1.83 -18.42,-5.52 -4.43,-3.42 -13.35,-13.75 -18.71,-19.11 -3,-3 -7.34,-8.69 -10.22,-8.69 -5.12,0 -7.32,2.81 -7.32,7.32 0,2.87 4.82,7.59 6.86,9.61 2.82,2.8 5.58,5.34 8.24,8.23 5.55,6 5,6.23 12.16,12.23 1.78,1.49 2.57,2.83 4.45,4.09 -7.1,13.42 -14.64,5.79 -21.2,-0.76l-9.76 -9.76c-4.31,-4.27 -10.36,-10.03 -14.08,-14.59 -7.12,-8.73 -17.2,1.22 -10.95,7.9l11.31 11.87c3.74,3.74 12.96,12.06 15.4,15.71 -13.62,0 -19.98,-6.29 -30.06,-13.86 -8.56,-6.42 -16.57,-12.62 -24.84,-19.08l-18.16 -14.78c-1.29,-1.13 -1.76,-1.25 -3.04,-2.45l-13.72 -13.73c-2.84,-2.84 -8.92,-8.28 -10.83,-11.13 2.08,-8.91 6.66,-22.62 9.28,-32.81 1.62,-6.3 7.8,-29.53 7.8,-34.9l39.65 0c-1.01,1.51 -1.67,1.82 -2.87,3.23l-7.92 10.99c-2.52,4.23 -6.9,12.49 -6.9,18.72zm140.29 -35.99c12.05,-2.81 13.88,-4.23 28.67,-6.71 6.95,-1.17 25.71,-3.05 32.94,-3.05l0 103.7 -27.45 0 -3.58 -12.28c-4.45,-13.29 -24.09,-69.4 -30.58,-81.66zm-196.41 81.13l-27.45 0 0 -103.09c11.34,0 28.47,2.86 39.3,5.23 4.68,1.02 7.9,2.37 11.94,3.31l-23.79 94.55zm-40.87 -111.02l0 118.33c0,3.96 3.92,6.1 7.93,6.1l35.99 0c5.73,0 8.71,-3.92 9.15,-9.15 2.54,1.7 8.62,8.18 11.14,10.82 6.96,7.27 9.01,8.99 17.1,15.84 2.13,1.8 3.93,3.11 6.1,4.88l37.1 28.77c11.44,8.58 19.67,13.51 34.68,13.51 3.4,0 7,-1.19 9.14,-2.48 4.69,-2.84 1.62,-0.57 10.99,-0.57 8.01,0 17.95,-7.53 19.52,-13.42 8.86,0 11.53,0.1 17.57,-3.16 3.6,-1.95 8.89,-6.63 9.87,-10.87 9.94,0 17.94,-5.28 21.53,-14.45 1.37,-3.52 1.03,-6.61 1.03,-11.16 3.52,-1.86 6.24,-4.24 9.76,-6.1 0.96,1.99 1.13,4.64 2.31,6.84 1.03,1.93 2.89,3.53 5.62,3.53l38.43 0c3.94,0 7.32,-2.28 7.32,-6.1l0 -118.33c0,-4.69 -4.18,-6.1 -8.54,-6.1 -16.25,0 -33.43,1.71 -47.32,4.52 -5.59,1.13 -30.92,6.47 -34.12,11.63 -1.37,2.2 -0.9,2.68 -0.9,5.81l-15.86 -6.1c-21.69,-8.68 -43.77,-23.16 -66.99,-9.04 -2.51,1.53 -4.29,2.56 -6.62,4.36 -3.13,2.41 -4.91,1.64 -9.96,1.63 -14.84,-0.02 -29.69,-0 -44.53,-0l0.61 -6.71c0,-13.59 -59.32,-18.91 -71.98,-18.91 -3.43,0 -6.1,2.67 -6.1,6.1z"/>
 </g>
</svg>
