<?xml version="1.0" encoding="UTF-8"?>
<!DOCTYPE svg PUBLIC "-//W3C//DTD SVG 1.1//EN" "http://www.w3.org/Graphics/SVG/1.1/DTD/svg11.dtd">
<!-- Creator: CorelDRAW -->
<svg xmlns="http://www.w3.org/2000/svg" xml:space="preserve" width="36.9732mm" height="36.9733mm" version="1.1" style="shape-rendering:geometricPrecision; text-rendering:geometricPrecision; image-rendering:optimizeQuality; fill-rule:evenodd; clip-rule:evenodd"
viewBox="0 0 96568.06 96568.33"
 xmlns:xlink="http://www.w3.org/1999/xlink"
 xmlns:xodm="http://www.corel.com/coreldraw/odm/2003">
 <defs>
  <style type="text/css">
   <![CDATA[
    .fil1 {fill:#FFCD75;fill-rule:nonzero}
    .fil0 {fill:url(#id0);fill-rule:nonzero}
   ]]>
  </style>
  <linearGradient id="id0" gradientUnits="userSpaceOnUse" x1="-23543.9" y1="-11957" x2="122080.25" y2="109783.71">
   <stop offset="0" style="stop-opacity:1; stop-color:#000000"/>
   <stop offset="1" style="stop-opacity:1; stop-color:#000000"/>
  </linearGradient>
 </defs>
 <g id="Слой_x0020_1">
  <metadata id="CorelCorpID_0Corel-Layer"/>
  <path class="fil0" d="M48284.82 96568.33c-26665.05,0 -48284.82,-21620.02 -48284.82,-48285.08 0,-26667.66 21619.76,-48283.25 48284.82,-48283.25 26667.66,0 48283.25,21615.58 48283.25,48283.25 0,26665.05 -21615.58,48285.08 -48283.25,48285.08z"/>
  <path class="fil1" d="M82029.78 39060.32c-361.48,-410.32 -987.54,-450.28 -1397.86,-88.8 -4591.35,4042.61 -5324.23,13779.02 -5440.98,16935.95l-10082.75 0 -3982.27 -12178.49c-133.2,-407.19 -512.7,-682.73 -941.31,-682.73l-3808.32 0 0 -1947.39c1241.67,-415.54 2140.4,-1587.21 2140.4,-2967.05l0 -3325.92c0,-546.92 -443.49,-990.41 -990.41,-990.41l-4280.28 0c-546.92,0 -990.15,443.49 -990.15,990.41l0 3325.92c0,1379.57 898.21,2551.51 2139.88,2967.05l0 1947.39 -3364.05 0 421.81 -10637.5c152.79,-171.08 279.99,-348.16 389.95,-502.78 109.44,-153.84 245.25,-345.02 323.61,-401.96 82.27,-59.55 308.98,-131.64 491.55,-189.1 456.55,-144.43 1082.09,-342.15 1484.57,-896.12 400.66,-550.58 397,-1177.42 394.13,-1681.24 -1.31,-193.54 -2.87,-434.35 30.04,-535.69 27.95,-85.93 170.81,-278.16 274.77,-418.42 289.13,-388.9 684.82,-921.46 684.82,-1623 0,-701.28 -395.69,-1234.09 -684.56,-1622.74 -104.21,-140.78 -247.08,-332.75 -274.77,-418.42 -32.91,-101.6 -31.34,-342.67 -30.56,-536.21 3.13,-503.82 6.79,-1130.67 -393.6,-1680.98 -403.27,-553.71 -1028.28,-751.69 -1484.83,-896.12 -182.31,-57.72 -409.28,-129.55 -491.55,-189.1 -78.36,-57.2 -214.43,-248.39 -323.61,-401.96 -279.21,-392.82 -662.1,-930.6 -1320.55,-1144.25 -182.31,-59.29 -377.15,-89.32 -579.31,-89.32 -417.89,0 -793.48,124.58 -1124.66,234.54 -196.93,65.3 -420.51,139.47 -534.38,139.47 -113.88,0 -337.45,-74.18 -534.64,-139.47 -331.44,-109.96 -707.02,-234.54 -1124.92,-234.54 -202.16,0 -397,30.04 -579.04,89.06 -658.71,213.91 -1041.34,751.69 -1320.81,1144.77 -109.44,153.31 -245.25,344.5 -323.87,401.7 -81.75,59.55 -308.72,131.38 -491.29,189.1 -456.81,144.43 -1082.09,341.89 -1485.09,896.12 -400.13,550.31 -396.48,1176.89 -393.34,1680.46 0.78,193.54 2.61,434.35 -30.82,536.73 -27.95,85.93 -170.55,278.16 -275.03,418.42 -288.87,388.9 -684.3,921.46 -684.3,1622.74 0,701.02 395.43,1233.83 684.3,1622.74 104.47,140.26 247.08,332.49 275.03,418.68 33.17,101.6 31.6,342.67 30.82,536.21 -3.4,503.56 -6.79,1130.14 393.34,1680.2 403.01,554.23 1028.28,751.95 1484.83,896.38 182.31,57.72 409.28,129.55 491.81,189.36 78.09,56.94 214.17,248.12 323.35,401.7 110.22,154.88 237.16,331.7 389.95,502.78l421.81 10637.76 -3364.05 0 0 -1947.39c1241.41,-415.54 2139.88,-1587.48 2139.88,-2967.05l0 -3325.92c0,-546.92 -443.49,-990.41 -990.41,-990.41l-4279.76 0c-546.92,0 -990.41,443.49 -990.41,990.41l0 3325.92c0,1379.57 898.21,2551.51 2140.14,2967.05l0 1947.39 -3808.58 0c-428.6,0 -808.36,275.55 -941.31,682.73l-3982.27 12178.49 -10082.75 0c-116.49,-3156.93 -849.11,-12893.35 -5440.98,-16935.95 -410.32,-361.48 -1036.12,-321.52 -1397.6,88.8 -361.48,410.32 -321.52,1036.12 88.8,1397.86 4729.78,4164.58 4791.16,16317.73 4791.16,16439.96l0 19498.69c0,547.18 443.49,990.41 990.41,990.41 546.66,0 990.15,-443.23 990.15,-990.41l0 -5235.43 12495.3 0 0 5235.69c0,546.92 443.49,990.15 990.41,990.15 546.92,0 990.15,-443.23 990.15,-990.15l0 -8754.1c2507.1,371.93 5779.48,684.3 9936.74,774.93l0 4244.76 -4540.42 2899.66c-370.88,236.63 -540.91,689.79 -417.63,1112.12 123.54,422.6 510.61,712.77 950.71,712.77l12959.16 0c440.09,0 827.43,-290.44 950.71,-712.77 123.28,-422.33 -46.49,-875.49 -417.37,-1112.12l-4540.42 -2899.66 0 -4244.76c4157,-90.63 7429.64,-403.01 9936.48,-774.93l0 8754.1c0,546.92 443.49,990.15 990.41,990.15 546.92,0 990.41,-443.23 990.41,-990.15l0 -5235.69 12495.3 0 0 5235.69c0,546.92 443.23,990.15 990.15,990.15 547.18,0 990.41,-443.23 990.41,-990.15l0 -19499.21c0,-121.97 61.12,-12275.38 4790.9,-16439.96 410.84,-361.48 450.54,-987.28 89.32,-1397.6zm-27793.37 -928.25l0 -2335.77 2299.46 0 0 2335.77c0,633.89 -515.84,1149.47 -1149.73,1149.47 -634.15,0 -1149.73,-515.58 -1149.73,-1149.47zm-9729.62 -8705.78c-154.62,-49.1 -381.07,-120.67 -473.53,-176.3 -23.77,-105 -22.46,-339.28 -21.42,-499.64 2.35,-353.9 4.44,-754.3 -126.94,-1159.66 -127.98,-395.17 -362.26,-710.42 -569.12,-988.32 -96.64,-130.07 -253.87,-342.15 -289.65,-441.66 35.52,-99.25 193.01,-311.33 289.65,-441.66 206.86,-278.16 441.14,-593.41 569.12,-988.06 131.64,-405.88 129.29,-806.54 126.94,-1160.18 -1.04,-160.37 -2.35,-394.91 21.42,-499.38 92.72,-55.89 318.91,-127.46 473.79,-176.3 336.14,-106.3 717.21,-226.71 1059.88,-476.4 339.8,-247.08 569.38,-570.16 772.06,-855.12 94.81,-133.46 232.98,-327.79 315.77,-399.35 108.39,11.49 308.2,77.83 471.7,132.16 339.54,112.57 724,240.03 1158.09,240.03 433.83,0 818.81,-127.46 1158.35,-240.03 162.46,-53.8 360.7,-119.88 471.18,-131.9 82.8,71.83 220.7,265.89 315.51,399.09 202.68,284.95 432.26,608.04 772.06,855.12 342.93,249.69 723.74,370.1 1059.62,476.4 154.88,48.84 381.59,120.41 474.05,176.3 23.77,104.73 22.2,339.8 21.16,500.17 -2.09,353.38 -4.44,753.52 127.2,1159.4 128.24,394.65 362.26,709.9 568.6,987.8 96.9,130.07 254.65,342.67 290.18,441.92 -35.52,99.77 -193.54,311.85 -290.18,442.18 -206.34,277.9 -440.36,593.15 -568.6,988.06 -131.64,405.36 -129.29,805.75 -127.2,1158.87 1.04,160.63 2.61,395.69 -21.42,500.17 -92.46,56.15 -319.17,127.46 -474.05,176.56 -335.62,106.3 -716.43,226.71 -1059.62,476.4 -339.54,247.08 -568.86,569.9 -771.8,855.12 -94.81,133.2 -232.98,327.26 -315.77,399.09 -108.39,-11.49 -307.94,-77.83 -471.18,-131.9 -339.54,-112.57 -724.26,-240.29 -1158.35,-240.29 -433.83,0 -818.29,127.46 -1158.09,240.29 -162.46,53.8 -361.22,119.62 -471.7,131.9 -82.8,-72.09 -221.22,-266.41 -316.03,-399.61 -202.42,-284.69 -432.26,-607.51 -771.54,-854.59 -342.93,-249.95 -723.74,-370.62 -1060.15,-476.66zm4937.94 3657.62l-395.17 9962.34 -1530.8 0 -395.17 -9962.08c223.31,-46.49 432.26,-114.92 626.06,-179.17 197.19,-65.56 420.77,-139.47 534.64,-139.47 114.14,0 337.71,73.92 534.9,139.47 193.28,64.25 402.22,132.68 625.54,178.91zm-9412.29 5048.16l0 -2335.77 2299.2 0 0 2335.77c0,633.89 -515.58,1149.47 -1149.47,1149.47 -634.15,0 -1149.73,-515.58 -1149.73,-1149.47zm-18633.12 19755.95l9413.07 0 -767.36 2347.26 -8645.71 0 0 -2347.26zm12495.3 11292.55l-12495.3 0 0 -6964.73 7997.97 0 -842.84 2578.15c-156.71,479.27 71.83,1000.07 530.73,1209.02 112.57,51.19 1566.32,694.23 4809.44,1307.49l0 1870.08 0 0zm17478.43 6225.84l-6178.05 0 2140.14 -1366.51c284.95,-182.05 457.33,-496.77 457.33,-834.74l0 -4762.43c162.98,0.78 326.22,1.31 491.55,1.31 165.33,0 328.57,-0.52 491.55,-1.31l0 4762.43c0,337.97 172.64,652.7 457.33,834.74l2140.14 1366.51zm-2098.61 -8947.38l0 -12995.21c0,-547.18 -443.23,-990.41 -990.41,-990.41 -546.66,0 -990.15,443.23 -990.15,990.41l0 12994.95c-3994.81,-34.74 -7210.51,-278.68 -9740.07,-593.93l2719.97 -12185.54c119.36,-533.6 -216.78,-1062.76 -750.9,-1182.12 -533.08,-119.1 -1062.76,216.78 -1182.12,750.9l-2754.45 12338.33c-2406.81,-385.77 -3983.32,-812.8 -4850.97,-1089.66l6365.84 -19469.96 22365.18 0 6366.36 19469.7c-868.96,277.38 -2444.68,704.15 -4849.66,1089.92l-2755.49 -12338.33c-119.36,-533.86 -649.04,-870 -1182.38,-750.9 -533.86,119.36 -869.74,648.52 -750.64,1182.38l2721.28 12185.28c-2529.83,315.51 -5745.52,559.46 -9741.38,594.19zm25894.56 2721.54l-12495.3 0 0 -1870.08c3243.12,-613.26 4696.87,-1256.29 4809.44,-1307.49 458.9,-209.21 687.44,-729.75 530.99,-1209.02l-843.1 -2578.15 7997.97 0 0 6964.73 0 0zm0 -8945.29l-8645.71 0 -767.36 -2347.26 9413.07 0 0 2347.26z"/>
 </g>
</svg>
