<?xml version="1.0" encoding="UTF-8"?>
<!DOCTYPE svg PUBLIC "-//W3C//DTD SVG 1.1//EN" "http://www.w3.org/Graphics/SVG/1.1/DTD/svg11.dtd">
<svg xmlns="http://www.w3.org/2000/svg" xml:space="preserve" width="250px" height="250px" version="1.1"
viewBox="0 0 27.6 28.9"
 xmlns:xlink="http://www.w3.org/1999/xlink"
 xmlns:xodm="http://www.corel.com/coreldraw/odm/2003">
 <g style="stroke: #FFCD75; stroke-width: 0.20px;">
  <path d="M11.56 9.68c-1.16,0.36 -1.98,1.03 -2.45,2.01 -0.53,1.11 -0.49,2.26 0.14,3.44 0.63,1.19 1.71,2.15 3.24,2.89 0.77,0.37 1.43,0.6 2.18,0.72 0.09,-0.09 0.19,-0.2 0.26,-0.3 -0.5,-0.09 -0.89,-0.23 -1.39,-0.48 -1.35,-0.65 -2.29,-1.63 -2.82,-2.95 -0.54,-1.31 -0.53,-2.54 0.03,-3.7 0.34,-0.7 0.83,-1.17 1.49,-1.41 0.65,-0.24 1.31,-0.2 1.98,0.12 0.7,0.34 1.19,0.86 1.46,1.58 0.28,0.71 0.25,1.4 -0.06,2.06 -0.13,0.28 -0.31,0.5 -0.54,0.66 -0.23,0.17 -0.52,0.3 -0.87,0.39l0.68 0.13c0.35,0.06 0.74,-0.02 1.16,-0.25 0.42,-0.22 0.71,-0.52 0.89,-0.88 0.3,-0.63 0.26,-1.32 -0.12,-2.07 -0.38,-0.75 -1.02,-1.34 -1.89,-1.76 -0.62,-0.3 -1.26,-0.45 -1.92,-0.45 -0.46,0 -0.94,0.07 -1.42,0.22z"/>
  <path d="M4.97 0l0.63 0c0.15,0 0.34,0.01 0.55,0.04 0.21,0.03 0.44,0.06 0.71,0.11 0.26,0.05 0.52,0.11 0.76,0.19 0.25,0.07 0.48,0.16 0.71,0.26 0.23,0.1 0.45,0.22 0.68,0.36 0.22,0.14 0.44,0.3 0.66,0.49 0.22,0.18 0.42,0.36 0.6,0.53 0.18,0.17 0.35,0.33 0.51,0.49 0.15,0.16 0.31,0.34 0.46,0.55 0.16,0.21 0.31,0.44 0.47,0.69 0.16,0.25 0.3,0.49 0.42,0.7 0.13,0.22 0.24,0.41 0.34,0.59 0.1,0.18 0.2,0.39 0.31,0.62 0.11,0.23 0.22,0.49 0.34,0.78 0.15,0.36 0.29,0.7 0.41,1.02 0.12,0.31 0.23,0.61 0.32,0.87l0.21 0.61c0.05,0.14 0.08,0.23 0.09,0.26 0.02,0.05 0.04,0.1 0.07,0.17 0.02,0.04 0.04,0.1 0.06,0.15l0.04 -0.11c0.06,-0.15 0.13,-0.35 0.23,-0.61 0.09,-0.25 0.18,-0.49 0.27,-0.72 0.09,-0.24 0.17,-0.45 0.25,-0.65 0.08,-0.2 0.18,-0.44 0.31,-0.74 0.13,-0.29 0.27,-0.62 0.44,-0.99 0.17,-0.37 0.33,-0.7 0.49,-1 0.15,-0.29 0.3,-0.55 0.44,-0.77 0.14,-0.22 0.3,-0.45 0.48,-0.7 0.18,-0.25 0.38,-0.51 0.6,-0.79 0.22,-0.28 0.44,-0.53 0.66,-0.75 0.22,-0.22 0.45,-0.4 0.67,-0.56l0 -0c0.55,-0.37 1.11,-0.64 1.69,-0.83 0.58,-0.18 1.18,-0.28 1.79,-0.28l0.09 0 0 0.42 -0.09 0c-0.46,0 -0.92,0.12 -1.39,0.36 -0.47,0.24 -0.95,0.61 -1.44,1.1 -0.49,0.49 -0.94,1.04 -1.36,1.63 -0.42,0.6 -0.8,1.24 -1.15,1.94 -0.35,0.7 -0.67,1.41 -0.95,2.14 -0.29,0.73 -0.54,1.47 -0.76,2.22 -0.22,0.75 -0.39,1.45 -0.5,2.08 -0.11,0.64 -0.17,1.22 -0.17,1.74l0 3.71c0,0.57 0.25,1 0.74,1.29l0 0c0.24,0.14 0.5,0.22 0.79,0.22l0.39 0 0 0.42 -5.68 0 0 -0.42 0.41 0c0.2,0 0.39,-0.04 0.56,-0.11 0.17,-0.07 0.34,-0.18 0.49,-0.32 0.3,-0.29 0.46,-0.64 0.48,-1.05l-0 -3.76c0,-0.56 -0.06,-1.17 -0.18,-1.82 -0.12,-0.66 -0.29,-1.36 -0.53,-2.12 -0.23,-0.76 -0.5,-1.5 -0.81,-2.22 -0.3,-0.72 -0.64,-1.43 -1.01,-2.12 -0.37,-0.69 -0.77,-1.33 -1.21,-1.91 -0.44,-0.58 -0.91,-1.11 -1.42,-1.59 -0.51,-0.47 -1.01,-0.83 -1.51,-1.07 -0.49,-0.23 -0.98,-0.35 -1.47,-0.35l-0.09 0 0 -0.42 0.09 0z"/>
  <path d="M19.49 2.21l-0.23 0.26 -0.08 0.09 -0.12 0.14 -0.13 0.15 -0.07 0.08c0.59,0.86 1.18,1.42 1.75,1.7 0.12,0.06 0.25,0.11 0.38,0.15 0,-1.07 -0.53,-2.06 -1.33,-2.77l-0.18 0.19z"/>
  <path d="M15.66 1.01c-0.96,0.29 -1.66,0.89 -2.1,1.79 -0.45,0.94 -0.55,1.86 -0.28,2.76 0.26,0.91 1.02,2.05 2.27,3.45 1.52,1.69 2.41,3 2.67,3.92 0.26,0.92 0.15,1.88 -0.34,2.89 -0.54,1.11 -1.43,1.85 -2.67,2.21 -0.07,0.02 -0.08,0.03 -0.15,0.04 0,0.01 0.01,0.02 0.01,0.02 0.01,0.01 0.01,0.02 0.02,0.04 0.05,0.08 0.1,0.16 0.17,0.22 0.15,-0.03 0.2,-0.05 0.35,-0.09 1.67,-0.49 2.9,-1.54 3.67,-3.15 0.56,-1.16 0.7,-2.25 0.42,-3.3 -0.28,-1.04 -1.05,-2.24 -2.3,-3.6 -0.14,-0.15 -0.34,-0.37 -0.6,-0.65 -2.16,-2.28 -2.89,-3.93 -2.44,-5.05 0.38,-0.97 2.09,-1.72 3.41,-0.89 0.22,0.14 0.39,0.37 0.39,0.37 0.18,-0.2 0.4,-0.42 0.61,-0.6 -0.05,-0.03 -0.11,-0.06 -0.16,-0.08 -0.63,-0.3 -1.25,-0.46 -1.87,-0.46 -0.36,0 -0.73,0.05 -1.09,0.16z"/>
  <path d="M15.28 10.93c0.15,0.21 0.27,0.43 0.37,0.69 0.28,0.71 0.26,1.4 -0.06,2.06 -0.13,0.28 -0.31,0.5 -0.54,0.66 -0.23,0.17 -0.52,0.3 -0.87,0.39l0.68 0.13c0.35,0.06 0.74,-0.02 1.16,-0.25 0.42,-0.22 0.71,-0.52 0.89,-0.88 0.3,-0.63 0.26,-1.32 -0.12,-2.07 -0.29,-0.58 -0.74,-1.06 -1.32,-1.44 -0.05,0.2 -0.12,0.47 -0.18,0.71z"/>
 </g>
</svg>
