<?xml version="1.0" encoding="UTF-8"?>
<!DOCTYPE svg PUBLIC "-//W3C//DTD SVG 1.1//EN" "http://www.w3.org/Graphics/SVG/1.1/DTD/svg11.dtd">
<!-- Creator: CorelDRAW -->
<svg xmlns="http://www.w3.org/2000/svg" xml:space="preserve" width="36.9738mm" height="36.9733mm" version="1.1" style="shape-rendering:geometricPrecision; text-rendering:geometricPrecision; image-rendering:optimizeQuality; fill-rule:evenodd; clip-rule:evenodd"
viewBox="0 0 95907.25 95905.95"
 xmlns:xlink="http://www.w3.org/1999/xlink"
 xmlns:xodm="http://www.corel.com/coreldraw/odm/2003">
 <defs>
  <style type="text/css">
   <![CDATA[
    .fil1 {fill:#FFCD75}
    .fil0 {fill:url(#id0);fill-rule:nonzero}
   ]]>
  </style>
  <linearGradient id="id0" gradientUnits="userSpaceOnUse" x1="-23382.67" y1="-11874.99" x2="121244.7" y2="109030.69">
   <stop offset="0" style="stop-opacity:1; stop-color:#000000"/>
   <stop offset="1" style="stop-opacity:1; stop-color:#000000"/>
  </linearGradient>
 </defs>
 <g id="Слой_x0020_1">
  <metadata id="CorelCorpID_0Corel-Layer"/>
  <path class="fil0" d="M47953.62 95905.95c-26481.89,0 -47953.62,-21471.73 -47953.62,-47953.88 0,-26484.75 21471.73,-47952.07 47953.62,-47952.07 26485.01,0 47953.62,21467.32 47953.62,47952.07 0,26482.15 -21468.62,47953.88 -47953.62,47953.88z"/>
  <path class="fil1" d="M35384.5 28635.89l25006.21 0 0 48292.65 -25006.21 0 0 -48292.65zm18258.38 -8864.48l0 6086.13 -12929.42 -95.46 11211.2 -5195.11c622.28,-276.77 1135.1,-487.14 1718.22,-795.56zm-21036.99 7276.74l0 51600.16c0,403.61 608.53,1058.58 1323.16,1058.58l28049.4 0c731.75,0 1322.9,-762.87 1322.9,-1455.45l0 -50938.45c0,-692.58 -591.16,-1455.45 -1322.9,-1455.45l-5556.96 0 0 -8600.16c0,-750.94 -857.55,-1058.32 -1587.74,-1058.32 -334.1,0 -3581.43,1532.75 -4231.99,1854.14 -476.5,235.53 -979.21,416.07 -1457.27,659.64l-2816.74 1284.77c-997.1,426.44 -1946.22,960.27 -2891.19,1342.87 -946,383.12 -1856.47,856.77 -2803.25,1298 -525.53,244.87 -853.4,356.66 -1367,617.61l-4277.12 1941.55c-1219.92,542.65 -2383.3,878.3 -2383.3,1850.51z"/>
  <path class="fil1" d="M47821.33 44248.46c3256.93,0 5599.25,2236.74 6218.42,4895.25l-12304.54 0c286.63,-597.38 225.67,-850.81 797.37,-1848.69 943.41,-1646.1 3146.95,-3046.56 5288.75,-3046.56zm-7277 7806.16l14553.99 0c4030.96,0 1302.41,-6191.96 -1290.74,-8500.29 -791.67,-704.51 -2247.64,-1507.33 -3364.06,-1795.77 -1462.45,-378.19 -1003.85,203.1 -1179.72,-1334.31 -170.68,-1494.62 -2700.28,-1790.07 -2758.9,390.65 -21.53,797.63 95.2,672.35 -621.24,834.21 -1730.41,390.65 -3649.13,1435.22 -4771.01,2770.57 -2035.19,2421.69 -3908.27,7634.96 -568.33,7634.96z"/>
  <path class="fil1" d="M37633.69 67402.09c0,644.07 747.31,1323.16 1455.45,1323.16l17464.63 0c2155.29,0 2184.6,-2910.64 -132.29,-2910.64l-17067.76 0c-984.13,0 -1720.03,626.43 -1720.03,1587.48z"/>
  <path class="fil1" d="M37633.69 73091.35c0,759.24 569.11,1455.45 1323.16,1455.45l17861.5 0c1842.72,0 1668.15,-2778.35 0,-2778.35l-17861.5 0c-681.68,0 -1323.16,761.84 -1323.16,1322.9z"/>
  <path class="fil1" d="M40015.18 55097.55c0,1032.9 579.48,1587.74 1720.03,1587.74l12437.09 0c2320.27,0 1984.35,-2910.9 264.58,-2910.9l-12833.96 0c-854.18,0 -1587.74,495.44 -1587.74,1323.16z"/>
 </g>
</svg>
