<?xml version="1.0" encoding="UTF-8"?>
<!DOCTYPE svg PUBLIC "-//W3C//DTD SVG 1.1//EN" "http://www.w3.org/Graphics/SVG/1.1/DTD/svg11.dtd">
<!-- Creator: CorelDRAW -->
<svg xmlns="http://www.w3.org/2000/svg" xml:space="preserve" width="36.9732mm" height="36.9733mm" version="1.1" style="shape-rendering:geometricPrecision; text-rendering:geometricPrecision; image-rendering:optimizeQuality; fill-rule:evenodd; clip-rule:evenodd"
viewBox="0 0 481.33 481.33"
 xmlns:xlink="http://www.w3.org/1999/xlink"
 xmlns:xodm="http://www.corel.com/coreldraw/odm/2003">
 <defs>
  <style type="text/css">
   <![CDATA[
    .fil1 {fill:#FFCD75}
    .fil0 {fill:url(#id0);fill-rule:nonzero}
   ]]>
  </style>
  <linearGradient id="id0" gradientUnits="userSpaceOnUse" x1="-117.35" y1="-59.6" x2="608.49" y2="547.2">
   <stop offset="0" style="stop-opacity:1; stop-color:#000000"/>
   <stop offset="1" style="stop-opacity:1; stop-color:#000000"/>
  </linearGradient>
 </defs>
 <g id="Слой_x0020_1">
  <metadata id="CorelCorpID_0Corel-Layer"/>
  <path class="fil0" d="M240.66 481.33c-132.92,0 -240.66,-107.76 -240.66,-240.67 0,-132.92 107.74,-240.66 240.66,-240.66 132.91,0 240.67,107.74 240.67,240.66 0,132.91 -107.76,240.67 -240.67,240.67z"/>
  <g id="_2364812151552">
   <path class="fil1" d="M240.36 345.53c-0.26,-0.99 -0.77,-1.44 -1.37,-2.23l-23.89 -34.31c-8.29,-12.43 -16.22,-24.92 -23.96,-37.85 -1.89,-3.16 -3.83,-6.43 -5.67,-9.63l-17.22 -32.88c-6.3,-13.13 -13.4,-31.9 -13.4,-46.01 0,-22.03 9.31,-43.96 24.68,-59.33 0.92,-0.92 1.63,-1.62 2.55,-2.55 13.33,-13.41 36.65,-23.03 56.18,-23.03 9.26,0 14.5,0.18 23.3,2.5 11.04,2.91 22.86,8.17 31.67,15.43 3.77,3.1 5.05,4.14 8.56,7.65 12.87,12.87 24.68,34.26 24.68,59.93 0,13.29 -7.41,32.63 -13.3,44.9 -17.25,35.87 -30.51,55.7 -53.3,90.11 -2.63,3.97 -17.92,26.25 -19.5,27.3zm-96.91 -164.11c0,12.7 2.29,19.84 6.11,31.39 4.15,12.55 10.12,24.17 15.99,35.92l25.32 43.99 20.69 31.51c3.21,4.84 27.11,38.87 29.1,40.2 0.86,-0.58 2.9,-3.56 3.73,-4.67 1.3,-1.74 2.52,-3.23 3.71,-4.99 4.27,-6.28 9.95,-13.54 14.52,-20.29l14.1 -20.7c1.21,-1.81 2.27,-3.41 3.48,-5.22l13.55 -21.26c4.19,-6.96 8.94,-14.6 12.81,-21.69l6.2 -11.2c1.05,-2.12 1.96,-3.62 3,-5.7 1.96,-3.94 3.96,-7.63 5.8,-11.6 7.77,-16.76 16.3,-36.35 16.3,-55.11 0,-3.82 -0.33,-7.98 -0.81,-11.19 -1.63,-11.06 -5.29,-24.26 -11.07,-33.94 -0.45,-0.75 -0.65,-1.28 -1.04,-1.96 -3.37,-5.88 -5.86,-8.92 -9.93,-14.08 -8.2,-10.38 -22.34,-20.73 -34.47,-26.14 -5.83,-2.6 -11.11,-4.33 -17.94,-6.07 -3.12,-0.79 -6.63,-1.26 -10.21,-1.79l-11.45 -0.86 -11.29 0.74c-26,3.61 -45.45,13.83 -62.9,33.41l-2.67 3.33c-12.63,15.81 -20.66,37.52 -20.66,57.94z"/>
   <path class="fil1" d="M164.46 358.13c0,5.57 0.52,8.33 3.78,13.02 1.77,2.55 4.67,5.39 7.15,7.25 11.25,8.43 27.63,12.84 42.05,14.96 7.13,1.05 19.31,1.97 26.53,1.97l24.82 -1.89c7.47,-1.26 15.04,-2.77 21.39,-5.31 1.53,-0.61 3.15,-1.18 4.7,-1.9 10.49,-4.89 22,-12.65 22,-25.7 0,-9.74 -7.52,-16.42 -13.74,-20.16 -5.4,-3.25 -12.2,-5.61 -18.36,-7.14l-7.2 -1.5c-0.2,0 -6.87,8.34 -7.2,9.6 10.88,0 21.89,4.92 29.58,10.93 2.44,1.91 5.83,5.45 5.83,8.88 0,2.7 -2.42,5.15 -3.85,6.95 -0.64,0.81 -1.15,1.02 -1.92,1.68 -5.26,4.58 -12.46,7.99 -19.17,10.23 -5.53,1.85 -18.17,4.54 -24.56,4.84 -2.53,0.12 -4.27,0.31 -6.9,0.3 -2.6,-0.01 -4.81,0.53 -7.16,0.26 -2.22,-0.25 -4.34,-0.21 -6.96,-0.24l-13.41 -1.3c-13.77,-1.84 -37.48,-8.47 -45.34,-20.67 -4.82,-7.48 10,-15.51 16.34,-17.76 4.06,-1.44 7.23,-2.34 11.59,-3.11 2.15,-0.37 4.56,-0.53 6.52,-0.98l-6.9 -9.6 -13.12 3.38c-2.24,0.75 -3.82,1.3 -5.95,2.15 -6.9,2.76 -15.15,7.44 -18.63,14.37 -0.83,1.66 -1.9,4.17 -1.9,6.51z"/>
   <path class="fil1" d="M240.67 214.42c-11.82,0 -22.53,-6.98 -27.7,-17.3 -6.13,-12.24 -3.29,-26.7 6.17,-36.03 0.76,-0.75 1.17,-0.94 1.95,-1.65 7.98,-7.17 22.27,-9.09 32.29,-4.23 1.85,0.9 3.23,1.54 4.78,2.72 0.79,0.59 1.48,1.05 2.22,1.68 0.42,0.36 0.53,0.51 0.95,0.85 7.89,6.33 11.96,18.98 9.46,29.78 -1.77,7.64 -6.1,14 -12.42,18.48 -4.9,3.47 -11.52,5.7 -17.7,5.7zm-42.3 -33c0,9.86 1.13,15.76 6.06,23.95 9.21,15.3 27.53,23.39 45.42,19.43 8.28,-1.83 12.89,-4.91 18.98,-9.82 0.65,-0.52 0.83,-0.59 1.47,-1.23 1.02,-1 1.46,-1.72 2.39,-2.71 0.83,-0.87 1.75,-1.98 2.42,-2.98 5.55,-8.2 7.86,-15.17 7.86,-26.05 0,-5.85 -2,-12.72 -4,-16.71 -2.45,-4.91 -3.92,-7.12 -7.48,-10.82 -6.16,-6.41 -12.51,-10.32 -21.46,-12.44 -16.47,-3.9 -34,3 -43.57,16.26 -4.41,6.11 -8.1,14.64 -8.1,23.1z"/>
  </g>
 </g>
</svg>
