<?xml version="1.0" encoding="UTF-8"?>
<!DOCTYPE svg PUBLIC "-//W3C//DTD SVG 1.1//EN" "http://www.w3.org/Graphics/SVG/1.1/DTD/svg11.dtd">
<!-- Creator: CorelDRAW -->
<svg xmlns="http://www.w3.org/2000/svg" xml:space="preserve" width="36.9738mm" height="36.9733mm" version="1.1" style="shape-rendering:geometricPrecision; text-rendering:geometricPrecision; image-rendering:optimizeQuality; fill-rule:evenodd; clip-rule:evenodd"
viewBox="0 0 481.35 481.34"
 xmlns:xlink="http://www.w3.org/1999/xlink"
 xmlns:xodm="http://www.corel.com/coreldraw/odm/2003">
 <defs>
  <style type="text/css">
   <![CDATA[
    .fil1 {fill:#FFCD75}
    .fil0 {fill:url(#id0);fill-rule:nonzero}
   ]]>
  </style>
  <linearGradient id="id0" gradientUnits="userSpaceOnUse" x1="-117.35" y1="-59.6" x2="608.51" y2="547.21">
   <stop offset="0" style="stop-opacity:1; stop-color:#000000"/>
   <stop offset="1" style="stop-opacity:1; stop-color:#000000"/>
  </linearGradient>
 </defs>
 <g id="Слой_x0020_1">
  <metadata id="CorelCorpID_0Corel-Layer"/>
  <path class="fil0" d="M240.67 481.34c-132.92,0 -240.67,-107.76 -240.67,-240.67 0,-132.92 107.75,-240.66 240.67,-240.66 132.91,0 240.67,107.74 240.67,240.66 0,132.91 -107.76,240.67 -240.67,240.67z"/>
  <g id="_2364462232064">
   <path class="fil1" d="M236.89 301.56c18.95,0 31.36,0.48 47.21,10.02 3.06,1.84 7.27,4.73 9.62,7.12 3.76,3.83 1.25,0.62 6.22,6.2 0.85,0.96 1.21,1.15 2.06,2.25 6.79,8.69 14.8,23.86 14.8,35.41l-152.25 0c0,-11.68 7.9,-26.32 14.57,-35.1 4.17,-5.5 4.9,-5.23 8.25,-8.49 1.62,-1.58 2.5,-2.33 4.41,-3.69 13.78,-9.88 26.5,-13.73 45.12,-13.73zm3.78 -87.47c6.68,0 14.79,2.77 19.6,6.31 1.49,1.09 3.54,2.74 4.72,3.92 2.71,2.72 5.32,6.57 6.99,10.29 5.58,12.45 3.36,29.22 -5.8,39.54 -16.3,18.37 -47.85,13.74 -57.38,-10.38 -3.56,-9.01 -3.2,-20.5 0.39,-28.79 3.34,-7.71 9.41,-14.1 17.04,-17.52 2.21,-0.99 3.86,-1.7 6.31,-2.33 1.58,-0.41 6.2,-1.06 8.12,-1.06zm-33.47 75.59c-4.97,0.41 -18.32,7.63 -22.99,11.02 -22.94,16.66 -36.4,41.11 -36.4,70.5 0,5.04 5.09,7.56 10.8,7.56l164.13 0c2.87,0 5.78,-0.41 7.44,-1.74 3.69,-2.97 3.36,-5.37 3.36,-9.06 0,-13.39 -5.1,-29.48 -11.37,-39.92 -2.28,-3.8 -4.34,-6.84 -6.98,-10.29 -5.01,-6.56 -11.03,-11.84 -17.74,-16.82 -4.7,-3.49 -18.28,-10.83 -23.3,-11.25 0.64,-2.38 2.85,-3.58 4.47,-5.25 8.02,-8.3 14.22,-25.96 12.51,-37.08 -1.37,-8.91 0.53,-5.75 -3.26,-16.73 -3.17,-9.19 -9.83,-17.06 -17.25,-22.7 -27.42,-20.83 -66.57,-6.97 -77.11,22.71 -3.93,11.06 -4.43,22.79 -1.42,34.23 1.28,4.88 3.71,9.83 6.26,13.72 4.21,6.43 8.22,8.69 8.86,11.11z"/>
   <path class="fil1" d="M314.64 163.89c2.6,-0.22 11.95,-3.47 13.61,-4.75 1.97,-1.52 5.95,-8.87 7.99,-10.37 7.31,10.92 7.91,12.06 21.06,15.12 -0.81,3.03 -5.01,6.93 -6.67,10.06 -2.04,3.84 -1.43,9.71 -1.43,15.31 -3.28,-0.76 -9.93,-3.78 -12.96,-3.78 -3.94,0 -9.42,3.44 -13.5,3.78 0,-5.51 0.72,-12.04 -1.23,-15.5 -1.74,-3.09 -4.7,-5.79 -6.86,-9.87zm-21.6 -4.32c0,5.79 12.39,17.65 13.36,21.2 2.4,8.83 -5.57,27.94 8.78,27.94 3.55,0 19.14,-6.48 21.06,-6.48 3.16,0 15.23,6.48 22.68,6.48 10.26,0 6.48,-20.23 6.48,-27.54 0,-1.36 13.5,-16.34 13.5,-20.52 0,-7.43 -4.42,-8.09 -10.06,-9.92 -2.52,-0.81 -4.32,-1.54 -6.9,-2.27 -10.09,-2.86 -6.85,-1.57 -14.97,-12.56 -5.03,-6.81 -4.97,-9.26 -11.8,-9.26 -2.45,0 -4.57,1.91 -5.79,3.38 -2.33,2.82 -10.03,15.02 -11.94,16.13 -1.01,0.59 -5.31,1.75 -6.89,2.28 -2.65,0.89 -4.76,1.4 -7.43,2.29 -2.15,0.71 -4.99,1.46 -6.61,2.57 -1.44,0.98 -3.44,4.33 -3.44,6.28z"/>
   <path class="fil1" d="M219.08 140.13c2.3,-0.19 12.2,-3.64 13.61,-4.75 2.01,-1.58 6.16,-9.03 7.99,-10.37 0.97,0.71 3.07,3.83 4,5.18 1.03,1.49 2.76,4.22 3.99,5.19 1.41,1.11 11.31,4.56 13.61,4.75 -9.82,14.66 -8.1,5.93 -8.1,25.38 -4.26,-0.36 -9.33,-3.78 -13.5,-3.78 -4.17,0 -9.24,3.42 -13.5,3.78 0,-13.36 2.19,-11.5 -4.47,-20.36 -1.37,-1.82 -2.42,-3.21 -3.63,-5.01zm-0.54 44.81c5.9,0 19.32,-6.48 22.14,-6.48 6.19,0 29.88,16.57 29.71,-3.76 -0.2,-23.3 -1.86,-14.72 7.87,-28.85 2.37,-3.44 6.5,-6.89 5.01,-12.09 -1.75,-6.07 -10.34,-6.95 -18.09,-9.48l-5.66 -1.9c-4.29,-2.19 -10.5,-19.21 -18.43,-19.79 -5.18,-0.38 -7.87,4.65 -10.12,7.84l-7.64 10.72c-1.34,1.65 -0.27,0.86 -2.65,1.67 -7.84,2.68 -20.19,4.7 -22.3,10.14 -2.21,5.71 3.33,11.18 8.14,17.59 0.72,0.96 1.17,1.57 1.85,2.47 4.48,5.89 2.7,8.15 2.62,20.6 -0.02,3.91 -0.13,5.15 1.41,7.77 1.01,1.71 3.84,3.57 6.15,3.57z"/>
   <path class="fil1" d="M158.61 189.26c-4.08,-0.34 -9.55,-3.78 -13.5,-3.78 -3.03,0 -9.68,3.02 -12.96,3.78 0,-5.6 0.61,-11.48 -1.43,-15.31 -1.67,-3.14 -5.86,-7.04 -6.67,-10.06 12.15,-2.83 12.56,-3.51 17.19,-9.8 1.28,-1.74 2.72,-3.62 3.86,-5.32 2.04,1.49 6.02,8.84 7.99,10.37 1.66,1.28 11,4.53 13.61,4.75 -2.18,4.12 -5.06,6.67 -6.86,9.87 -1.94,3.45 -1.23,10.11 -1.23,15.5zm-56.15 -30.23c0,5.19 2.77,7.48 6.25,12.11 10.61,14.16 6.67,6.32 6.69,26.78 0.02,21.35 22.9,4.3 29.71,4.3 6.25,0 21.97,11.89 28.19,3.35 3.25,-4.47 0.26,-17.28 1.55,-24.37 1.07,-5.9 20.16,-19.11 10.63,-27.46 -1.57,-1.37 -4.59,-2.15 -6.82,-2.9 -19.09,-6.38 -12.11,-0.93 -24.45,-17.66 -0.75,-1.02 -1.2,-1.86 -1.99,-2.87 -3.89,-5 -10.5,-4.99 -13.83,-0.14 -1.94,2.82 -10.37,15.07 -11.65,15.88 -1.1,0.7 -5.15,1.8 -6.89,2.28 -2.25,0.62 -4.41,1.43 -6.92,2.25 -2.31,0.76 -5.02,1.28 -6.77,2.41 -1.56,1.01 -3.7,3.57 -3.7,6.02z"/>
  </g>
 </g>
</svg>
