<?xml version="1.0" encoding="UTF-8"?>
<!DOCTYPE svg PUBLIC "-//W3C//DTD SVG 1.1//EN" "http://www.w3.org/Graphics/SVG/1.1/DTD/svg11.dtd">
<!-- Creator: CorelDRAW -->
<svg xmlns="http://www.w3.org/2000/svg" xml:space="preserve" width="36.9732mm" height="36.9733mm" version="1.1" style="shape-rendering:geometricPrecision; text-rendering:geometricPrecision; image-rendering:optimizeQuality; fill-rule:evenodd; clip-rule:evenodd"
viewBox="0 0 95850.34 95850.6"
 xmlns:xlink="http://www.w3.org/1999/xlink"
 xmlns:xodm="http://www.corel.com/coreldraw/odm/2003">
 <defs>
  <style type="text/css">
   <![CDATA[
    .fil1 {fill:#FFCD75}
    .fil0 {fill:url(#id0);fill-rule:nonzero}
   ]]>
  </style>
  <linearGradient id="id0" gradientUnits="userSpaceOnUse" x1="-23368.92" y1="-11868.13" x2="121172.91" y2="108967.76">
   <stop offset="0" style="stop-opacity:1; stop-color:#000000"/>
   <stop offset="1" style="stop-opacity:1; stop-color:#000000"/>
  </linearGradient>
 </defs>
 <g id="Слой_x0020_1">
  <metadata id="CorelCorpID_0Corel-Layer"/>
  <path class="fil0" d="M47925.95 95850.6c-26466.87,0 -47925.95,-21459.34 -47925.95,-47926.21 0,-26469.46 21459.08,-47924.39 47925.95,-47924.39 26469.46,0 47924.39,21454.93 47924.39,47924.39 0,26466.87 -21454.93,47926.21 -47924.39,47926.21z"/>
  <g id="_2364054560096">
   <path class="fil1" d="M21042.73 56656.46c4780.95,-5.96 9034.35,366.05 13356.45,1180.85 7320.5,1380.21 19835.44,2757.31 27140.64,1385.39 4116.26,-773.06 8211,-1654.75 12369.25,-2384l-16996.47 -29490.68 -16647.27 11.15c-4324.69,6208.6 -10052.66,15211.33 -14384.08,21820.72 -852.39,1300.36 -4505.64,6608.62 -4838.51,7476.56z"/>
   <path class="fil1" d="M20766.12 56846.49c-5123.93,636.7 -5412.99,-433.19 -6808.23,4334.28 -957.38,3270.35 -732.62,6479.77 675.85,9313.04 791.21,1591.49 1221.81,1988.39 3234.57,2273.56 3420.97,484.27 12210.33,-427.23 16007.98,-629.44 7446.75,-396.38 14326.01,-542.34 21673.73,314.72 5877.81,685.7 15753.92,1077.93 21575.74,406.75 2093.13,-241.35 3003.07,-317.05 3893.83,-1651.38 2439.47,-3652.99 1468.87,-11505.45 -415.31,-13289.82 -2782.71,-2635.46 -15128.89,620.63 -18764.77,1343.4 -5764.26,1145.85 -15213.4,463.53 -21038.59,-253.54 -5910.48,-727.69 -13846.93,-2930.74 -20034.8,-2161.57z"/>
   <path class="fil1" d="M60185.8 29232.21c-695.03,458.86 -590.3,7.26 -893.61,765.54 675.07,642.14 1664.86,640.85 2298.45,39.15 -305.65,-1088.3 -381.35,-52.63 -959.72,-996.01l12.18 -3834.46c758.29,643.18 870.54,922.13 2034.8,533l2.85 6746.53c-617.26,505.78 -846.43,139.21 -1278.84,957.12 632.29,1061.34 2535.39,1076.12 3154.98,0 -293.2,-557.11 104.99,-137.4 -481.93,-523.41l-814.02 -433.71 231.24 -5763.23c836.84,1138.33 894.65,1362.32 2619.91,744.55l6.22 8846.66c-229.69,904.5 -1130.82,-14.52 -1685.86,1339.77 585.63,1363.36 3577.29,1366.47 4161.36,0 -331.05,-810.65 -701.51,-745.32 -1695.45,-1056.67l-15.04 -7463.6c762.69,1782.81 2260.08,1532.12 3565.37,793.8l2.85 12511.57c-327.42,601.44 -564.37,345.05 -1317.21,618.03 -1954.95,708.51 -895.17,2528.65 2064.87,2441.55 2362.48,-69.48 3735.17,-1649.3 1674.45,-2432.22 -232.28,-88.14 -626.59,-166.43 -748.95,-214.39 -733.92,-287.76 -247.32,153.99 -624.52,-412.97l3.63 -11177.77c491.26,342.2 413.23,1811.07 1831.55,2728.79 1529.79,990.05 2230.01,154.51 3269.83,-362.94l19.96 16467.88c-1341.32,498.26 -2513.62,290.87 -3005.92,1722.41 -239.28,2528.14 7590.37,2503.25 7424.97,0 -114.59,-1734.33 -2950.96,-911.76 -3083.95,-2286.26l46.15 -16470.73 820.24 -510.71 -764.77 -608.18c787.06,-314.2 463.01,-10.89 748.43,-623.22 -414.79,-311.35 -324.05,-128.07 -704.88,-545.71 632.03,-714.73 408.57,-1008.71 56.26,-1779.18 -1619.23,-495.67 -2777.27,596.52 -1655.78,1825.33 -317.31,330.02 -341.94,268.06 -654.85,518.74 297.35,575.26 -13.48,284.13 700.21,568 -1370.1,994.71 -2915.18,3201.65 -4027.85,-1311.77 -152.18,-617 -230.21,-945.98 -464.82,-1495.57 -22.04,-51.59 -95.14,-189.51 -109.66,-236.17 -164.1,-531.19 142.58,-172.66 -81.92,-862.24 -146.73,-451.08 229.95,-2410.18 -1295.18,-1705.04 -731.32,338.05 -395.86,754.14 -443.56,1416.5 -2.33,35.78 -12.18,92.03 -16.07,125.47 -117.18,987.46 -163.58,219.84 136.36,949.09 -830.87,457.04 -672.99,797.17 -1862.4,939.5 -857.83,-679.48 -1137.56,-1938.88 -1206.52,-3069.43l-2.59 -493.6c-7.52,-304.87 0,14.52 -20.74,-283.09 -1.81,-25.92 -20.22,-341.16 -23.07,-366.83 -103.44,-930.94 -269.35,-917.46 -1166.59,-739.62 -101.88,400.79 -68.18,576.56 -87.88,898.79 -31.37,512.26 406.75,1584.23 -1376.84,1451.76 -528.6,-618.29 -585.11,-1074.3 -815.84,-1874.84 -587.44,-2037.91 129.88,-1317.73 -715.25,-1678.6 -1262.51,509.67 446.42,1847.36 -1531.09,1846.07 -1091.93,-1478.2 -135.84,-2343.3 -1148.45,-2746.42 -419.45,672.22 -222.17,958.68 -154.25,1475.61l48.74 5087.38z"/>
   <path class="fil1" d="M34514.02 25463.34c-2394.63,-123.14 -116.66,-1455.13 -1784.11,-1873.55 -645,501.12 -56.51,-304.87 -625.55,1770.11 -181.21,661.07 -467.16,1320.58 -659.51,1805.63 -1509.31,0.26 -1485.2,-587.44 -1489.09,-1133.41 -15.04,-2179.19 -1304.51,-1464.72 -1283.51,111.22l12.44 192.62c10.63,636.96 -297.61,4257.03 -2248.15,3079.03 -577.85,-348.94 -142.84,-264.69 -832.43,-603.26 246.54,-657.96 223.73,-193.65 223.73,-547.78 0,-446.68 -139.47,-40.96 -180.43,-528.08 -59.37,-704.36 323.02,-339.87 -135.58,-1400.95 -1919.17,-439.68 -1284.03,534.04 -1593.57,1822.99l-29.55 223.99c-4.67,32.41 -2.07,92.29 -6.74,126.51 -4.67,35.78 -3.37,94.88 -9.33,132.21 -6.22,38.37 -10.37,95.92 -18.67,135.58 -220.62,1047.34 -1154.15,4327.8 -2033.76,4554.89 -1017.01,262.87 -2130.72,-1127.19 -2178.16,-1169.96 -32.66,-29.55 -81.92,-70.51 -112.51,-96.96l-240.84 -190.54c690.62,-243.43 379.53,5.18 650.96,-536.11 -368.9,-332.61 -339.35,-260.28 -610.26,-581.22 804.69,-731.58 310.31,-1932.4 -769.95,-1955.99 -1273.66,-28 -1517.61,1266.4 -831.91,2036.09 -644.48,518.23 -387.83,9.33 -702.03,783.95l736.77 316.54c-539.22,356.46 -328.98,81.92 -713.18,549.08 918.5,1214.03 802.36,-1035.16 802.1,3827.98 -0.26,3052.06 191.58,11938.39 -70,13780.83 -1024.53,386.27 -3250.39,577.07 -2958.74,2028.83 423.6,2109.46 6727.09,2018.2 7310.65,174.73 526.78,-1663.3 -1868.88,-1824.55 -2924,-2220.41l3.11 -16519.98c719.14,868.2 4004.78,2172.19 5017.38,-2736.83l113.29 11617.7c-169.29,635.92 -2664.76,503.97 -2339.15,1913.99 862.24,1532.38 5065.86,1656.04 5713.45,-191.58 43.29,-919.79 -1262.77,-1141.19 -1575.42,-1250.59 -945.46,-330.53 -400.01,94.36 -756.73,-471.82l1.56 -12449.87c2125.01,901.91 2034.8,821.8 3507.81,-732.88l65.59 7057.88c-355.42,666.51 19.96,190.02 -860.69,543.89 -2944.22,1183.18 2287.3,2981.81 3301.2,795.88 -380.05,-849.8 -664.7,-785.76 -1667.71,-1022.19l-17.37 -9237.08c1564.79,1046.04 2159.75,78.29 2779.6,-1203.15l87.88 6294.67c-715.51,593.93 -858.09,124.7 -1303.73,957.12 795.62,1757.67 5376.95,153.47 1873.29,-781.62l5.18 -6996.7c919.27,485.04 1565.57,368.38 1971.54,-588.22l89.44 3964.08c-493.08,885.05 -592.37,-114.84 -937.16,957.12 581.22,659.25 1680.15,657.7 2260.08,0 -601.44,-1864.73 -883.24,1954.69 -903.98,-4406.09 -2.07,-664.7 20.22,-998.86 97.48,-1625.97 82.96,-675.59 244.73,-909.42 -325.61,-1321.88 -668.85,535.85 -114.33,723.81 -895.42,2819.52z"/>
  </g>
 </g>
</svg>
