<?xml version="1.0" encoding="UTF-8"?>
<!DOCTYPE svg PUBLIC "-//W3C//DTD SVG 1.1//EN" "http://www.w3.org/Graphics/SVG/1.1/DTD/svg11.dtd">
<!-- Creator: CorelDRAW -->
<svg xmlns="http://www.w3.org/2000/svg" xml:space="preserve" width="36.9732mm" height="36.9733mm" version="1.1" style="shape-rendering:geometricPrecision; text-rendering:geometricPrecision; image-rendering:optimizeQuality; fill-rule:evenodd; clip-rule:evenodd"
viewBox="0 0 95850.34 95850.6"
 xmlns:xlink="http://www.w3.org/1999/xlink"
 xmlns:xodm="http://www.corel.com/coreldraw/odm/2003">
 <defs>
  <style type="text/css">
   <![CDATA[
    .fil1 {fill:#FFCD75}
    .fil0 {fill:url(#id0);fill-rule:nonzero}
   ]]>
  </style>
  <linearGradient id="id0" gradientUnits="userSpaceOnUse" x1="-23368.92" y1="-11868.13" x2="121172.91" y2="108967.76">
   <stop offset="0" style="stop-opacity:1; stop-color:#000000"/>
   <stop offset="1" style="stop-opacity:1; stop-color:#000000"/>
  </linearGradient>
 </defs>
 <g id="Слой_x0020_1">
  <metadata id="CorelCorpID_0Corel-Layer"/>
  <path class="fil0" d="M47925.95 95850.6c-26466.87,0 -47925.95,-21459.34 -47925.95,-47926.21 0,-26469.46 21459.08,-47924.39 47925.95,-47924.39 26469.46,0 47924.39,21454.93 47924.39,47924.39 0,26466.87 -21454.93,47926.21 -47924.39,47926.21z"/>
  <path class="fil1" d="M53235.5 80403.1l26390.65 0 0 -35296.94 -4813.88 -1348.84c-257.69,4554.38 -842.02,6833.64 -2764.82,10416.89 -1603.42,2988.29 -3336.97,5383.43 -4976.42,8063.75 -316.02,-274.8 -2256.97,-3355.38 -2627.94,-3947.75 -3040.4,-4855.62 -5000.53,-8303.55 -5171.63,-14495.56 -1337.69,146.47 -5127.82,1388.5 -6354.56,1904.66 -2544.47,1070.67 -3059.32,1713.85 -4041.59,4335.83 -774.36,2066.94 -1532.64,4024.74 -2274.34,6096.61 -398.72,1113.19 -1815.74,5570.87 -2370.52,6026.36 -409.86,-133.51 -426.71,-281.8 -693.99,-725.36 -136.88,-227.36 -323.02,-526.78 -477.27,-788.88 -688.03,-1169.96 -2548.87,-3983.01 -2865.15,-4913.69 -619.07,137.92 -1368.02,587.18 -2047.76,827.24 -2662.68,940.53 -4711.74,929.39 -7528.15,794.06 271.69,867.17 1738.22,3315.97 2264.23,4205.95 814.54,1378.13 1538.35,2618.61 2326.19,4013.6 1638.41,2901.19 3129.32,4899.69 5188.23,7374.16 907.61,1090.89 2153.53,2161.31 4470.12,1897.66 3740.87,-425.42 4710.44,-3694.99 6144.05,-6441.66 665.22,-1274.7 1306.06,-2955.11 2039.46,-4061.04 454.45,5051.6 151.4,10914.12 185.1,16062.94z"/>
  <path class="fil1" d="M16289.26 45178.49c551.67,215.69 1092.45,145.69 1771.41,145.69 484.78,193.4 52.63,1027.12 2699.24,1016.23 1219.48,-5.18 2520.36,-41.22 3731.28,10.37 1858.77,2536.17 608.96,1388.24 3377.93,4361.5 1167.37,1253.44 2796.71,2349 3420.97,4439.79 2098.05,72.59 4097.33,-214.13 5879.37,-965.42 2366.63,-998.08 761.14,-2281.85 1605.49,-5242.41 256.91,-900.87 745.58,-1625.97 1221.03,-2213.41 359.57,-444.08 505.26,-402.86 1181.11,-397.42 1267.7,9.85 4224.36,175.25 4988.87,-277.13 424.12,-251.21 581.22,-625.81 906.31,-709.81 265.46,-68.18 2720.75,383.68 1468.09,-1729.15 -262.09,-442.01 -496.45,-641.63 -1028.16,-879.09 -931.98,-415.83 -426.97,-512 -1213.52,-2589.84 -345.57,-912.53 -776.69,-1796.03 -1261.48,-2543.69 -4166.29,-6424.55 -11909.09,-8844.33 -18806.25,-5529.65 -1651.12,793.54 -3571.59,2211.08 -4465.2,3278.12 -1414.17,1688.97 -2766.9,3766.02 -3409.04,6240.75 -249.13,960.49 18.92,774.62 -771.77,1124.34 -867.17,383.68 -1585.01,1285.07 -1295.7,2460.21z"/>
  <path class="fil1" d="M68003.52 15447.24l-2076.53 0c-539.48,245.24 -1638.67,382.9 -2289.11,631.52 -1648.52,629.7 -3650.66,2262.67 -4941.43,3432.37 -2369.48,2147.57 -1815.22,5495.69 -1227.51,9012.83 -886.61,-50.81 -1147.93,-8.56 -1290.77,896.46 -104.73,662.37 -19.7,1353.51 234.36,1881.07 573.7,1190.96 2406.55,1906.21 2407.59,1907.25 927.05,1981.39 1754.04,3796.61 2977.66,5145.45 4650.3,5125.49 9307.85,2518.28 12206.19,-2521.91 426.45,-741.69 921.87,-2089.24 1311.25,-2623.54 642.66,-324.57 744.55,-135.58 1215.85,-683.62 506.82,-589.26 2163.12,-1587.08 1094.52,-3933.75l-1023.23 -62.74c289.83,-1776.59 700.21,-3278.38 507.34,-5218.3 -303.83,-3057.51 -1683.52,-3629.92 -3441.45,-5203.52 -2729.83,-2443.1 -3960.97,-2038.94 -5664.71,-2659.57z"/>
  <path class="fil1" d="M62741.41 45261.19c-11.15,6122.54 -615.96,5339.1 3924.16,3009.03 1011.05,-518.74 3153.17,1832.85 4453.53,1663.82 313.68,-627.37 326.13,-4860.28 49.26,-5584.35 -1262.25,-210.76 -3472.04,2105.57 -4483.08,1686.89 -2374.15,-983.05 -3940.23,-2867.22 -3943.86,-775.4z"/>
  <path class="fil1" d="M20245.56 42528.51c4816.99,3.37 1429.72,763.21 4418.79,-4903.32 396.12,-751.54 849.54,-1526.94 1319.03,-2112.57l1660.19 -1805.88c-3107.54,825.69 -6726.31,5190.56 -7398.01,8821.77z"/>
  <path class="fil1" d="M43088.48 42483.92l1795 49.77c-586.93,-3319.86 -3363.67,-6635.06 -5413.25,-7755.77 747.92,711.1 1603.93,2218.08 2206.16,3397.12 940.01,1840.1 1007.94,3430.82 1412.1,4308.87z"/>
  <path class="fil1" d="M31889.19 26167.96c-1940.17,703.33 -1070.93,4233.17 1341.58,3275.53 1998.76,-793.54 963.86,-4111.33 -1341.58,-3275.53z"/>
  <path class="fil1" d="M37194.33 46343.79l-5444.36 -2.85c975.01,813.24 2321.26,3053.1 4299.28,1138.85 305.13,-295.28 991.86,-935.61 1145.08,-1136z"/>
  <path class="fil1" d="M37600.57 59157.9c-1298.29,424.9 -716.81,2505.84 716.81,2018.2 1241.77,-422.05 676.62,-2474.21 -716.81,-2018.2z"/>
 </g>
</svg>
