<?xml version="1.0" encoding="UTF-8"?>
<!DOCTYPE svg PUBLIC "-//W3C//DTD SVG 1.1//EN" "http://www.w3.org/Graphics/SVG/1.1/DTD/svg11.dtd">
<!-- Creator: CorelDRAW -->
<svg xmlns="http://www.w3.org/2000/svg" xml:space="preserve" width="36.9738mm" height="36.9733mm" version="1.1" style="shape-rendering:geometricPrecision; text-rendering:geometricPrecision; image-rendering:optimizeQuality; fill-rule:evenodd; clip-rule:evenodd"
viewBox="0 0 481.35 481.34"
 xmlns:xlink="http://www.w3.org/1999/xlink"
 xmlns:xodm="http://www.corel.com/coreldraw/odm/2003">
 <defs>
  <style type="text/css">
   <![CDATA[
    .fil1 {fill:#FFCD75}
    .fil0 {fill:url(#id0);fill-rule:nonzero}
   ]]>
  </style>
  <linearGradient id="id0" gradientUnits="userSpaceOnUse" x1="-117.35" y1="-59.6" x2="608.51" y2="547.21">
   <stop offset="0" style="stop-opacity:1; stop-color:#000000"/>
   <stop offset="1" style="stop-opacity:1; stop-color:#000000"/>
  </linearGradient>
 </defs>
 <g id="Слой_x0020_1">
  <metadata id="CorelCorpID_0Corel-Layer"/>
  <path class="fil0" d="M240.67 481.34c-132.92,0 -240.67,-107.76 -240.67,-240.67 0,-132.92 107.75,-240.66 240.67,-240.66 132.91,0 240.67,107.74 240.67,240.66 0,132.91 -107.76,240.67 -240.67,240.67z"/>
  <path class="fil1" d="M96.23 377.93l288.89 0 0 20.26 -288.89 0 0 -20.26zm311.77 -24.84l0 13.27c-0.62,6.54 -3.2,11.57 -12.42,11.57l0 22.88c0,3.89 -1.26,7.19 -5.23,7.19l-299.35 0c-3.16,0 -5.23,-2.07 -5.23,-5.23l0 -24.84c-7.03,0 -12.42,-3.63 -12.42,-10.46l0 -14.58c0.73,-5.52 3.1,-10.1 9.8,-10.25 0,-8.21 -1.79,-18.3 5.23,-18.3 6.97,0 5.23,11.41 5.23,18.3l69.28 0 0 -103.27 -69.28 0 0 68.63c0,9.26 -10.46,8.09 -10.46,1.31l0 -74.51c0,-7.09 8.76,-5.23 18.3,-5.23l0 -149.02c0,-3.89 1.26,-7.19 5.23,-7.19l268.63 0c1.57,0 3.92,2.35 3.92,3.92l0 152.29c12.68,0 18.3,-2 18.3,7.19 0,5.17 1.66,18.95 -4.57,18.95 -7.59,0 -5.88,-6.46 -5.88,-16.34l-69.28 0 0 103.27 69.28 0 0 -71.9c0,-6.81 10.46,-8.09 10.46,1.96l0 69.94c6.06,0 10.46,4.47 10.46,10.46zm-71.9 -137.26l20.91 13.73 -20.91 0 0 -13.73zm-190.85 0l0 13.73 -20.91 0 10.08 -6.91c3.88,-2.37 7.11,-4.84 10.84,-6.81zm224.19 -28.11l0 37.26 -28.76 -18.3c1,-1.37 26.63,-18.38 28.76,-18.96zm-257.52 37.26l0 -37.26c4.09,1.09 22.1,14.78 28.76,18.3 -1.56,2.14 -10.9,7.47 -13.99,9.54 -2.62,1.76 -4.4,3.02 -7.14,4.63 -2.89,1.7 -4.78,3.28 -7.64,4.78zm224.19 -28.11l0 -37.26c2.6,1.37 4.81,2.98 7.19,4.57l20.13 13.21c0.11,0.08 0.27,0.2 0.37,0.28 1.19,0.91 0.45,0.35 1.07,0.89 -2.24,0.6 -5.11,3.02 -7.4,4.37 -2.66,1.57 -4.6,2.98 -7.11,4.65l-14.25 9.28zm-218.96 -18.96c4.44,-2.97 9.23,-6.42 13.76,-9.12 4.9,-2.93 9.45,-6.59 14.35,-9.18l0 37.26c-2.99,-1.58 -26.93,-17.35 -28.1,-18.96zm171.24 -16.99c6.33,0 11.51,2.56 15.97,5.6 13.96,9.5 4.31,23.52 3.63,26.43l-35.29 -18.3c0.22,-2.59 1,-3.17 2.15,-5.04 1.32,-2.15 1.5,-2.27 3.22,-3.97 2.28,-2.25 6.06,-4.72 10.32,-4.72zm-115.03 32.03c-0.73,-3.14 -10.39,-16.42 3.25,-26.16 7.92,-5.66 18.45,-9.12 26.36,-1.48 2.02,1.95 5,6.4 5.69,9.34 -2.94,0.68 -31.89,16.5 -35.29,18.3zm133.34 -45.75c3.61,0 6.82,4.17 2.61,10.46 -2.81,-1.49 -5.58,-3.03 -8.5,-4.58 0.63,-2.69 2.72,-5.88 5.88,-5.88zm-135.29 10.47c-0.41,-1.74 -4.15,-6.57 0.88,-9.65 1.77,-1.09 3.44,-0.81 5.11,0.33 1.76,1.2 2.21,2.94 3.15,4.73l-9.14 4.59zm169.28 -7.86l21.36 -13.94c2.28,-1.35 5.16,-3.77 7.4,-4.37l0 37.26c-3.36,-1.78 -27.54,-17.29 -28.76,-18.96zm-228.76 18.96l0 -37.26c2.23,0.6 5.29,3.09 7.32,4.45 2.57,1.71 4.54,2.92 7.19,4.58l14.25 9.28c-1.17,1.6 -17.96,12.19 -21.05,14.25 -2.08,1.39 -5.44,4.1 -7.71,4.71zm66.01 -32.68l0 -9.15 125.49 0c0,17.82 0.52,6.38 -8.13,15.4 -0.94,0.98 -1.54,1.93 -2.22,3.01 -3.27,5.21 -0.97,4.43 -4.62,5.18 -8.41,1.74 -13.55,2.45 -20.15,10.57 -1.97,2.43 -6.72,10.4 -6.72,13.54 0,7.12 7.38,8.96 14.41,13.04l18.4 9.71c14.32,8.72 18.07,8.5 24.08,-3.12 1.55,-3.01 3.92,-9.96 3.7,-14.26 -0.43,-8.4 -2.75,-10.15 -4.4,-13.9 -0.97,-2.2 0.67,-3.86 1.86,-5.97 7.49,-13.38 -5.75,-19.76 -5.75,-22.1l0 -11.11 11.76 0 0 102.62c-12.53,0 -18.3,-1.94 -18.3,6.54l0 106.54 -18.96 0c-4.62,0 -6.02,9.8 1.31,9.8l107.85 0 0 15.03 -314.38 0c0,-16.3 -1.22,-15.13 4.52,-15.09 58.59,0.45 117.84,-0.11 176.53,0.06 4.88,0.01 8.58,0.79 10.27,-2.86 1.36,-2.93 -0.23,-6.94 -4.39,-6.94l-96.73 0 0 -105.88c0,-9.39 -6.56,-7.19 -17.65,-7.19l0 -102.62 11.76 0 0 12.42c-6.2,1.65 -10.39,11.76 -6.11,20.49l2.01 3.87c0.78,1.21 0.26,0.46 0.83,1.13 -7.1,10.6 -6.54,18.95 -1.09,29.85 7.28,14.55 12.52,8.35 26.81,1.1l26.21 -14.31c9.33,-6.81 -4.39,-31.02 -25.79,-31.02 -2.74,-11.77 -12.42,-11.35 -12.42,-14.38zm158.17 4.57l0 -13.73 20.26 0c-1.25,1.71 -7.63,5.58 -10.01,6.98 -3.65,2.15 -6.89,4.5 -10.25,6.74zm-211.77 -13.73l20.91 0 0 13.73 -20.91 -13.73zm245.1 -33.33l0 22.88 -15.69 0c0.75,-2.81 5.56,-8.65 7.45,-11.5 1.62,-2.45 6.55,-10.15 8.23,-11.37zm-56.21 -5.88c2.03,0.54 3.83,3.81 5.76,6.66l15.15 22.1 -40.52 0c2.74,-5.17 18.82,-25.79 19.61,-28.76zm-58.82 0c2.29,1.53 3.79,4.31 5.61,6.81l15.31 21.95 -40.52 0c0.55,-2.05 0.88,-1.77 2.22,-3.66 0.96,-1.36 1.52,-2.34 2.36,-3.52 1.68,-2.37 3.34,-4.88 5.13,-7.29 3.49,-4.69 6.69,-9.47 9.9,-14.28zm-59.48 0c2.09,0.56 1.9,1.16 3.03,2.86 3.71,5.58 15.63,21.64 17.89,25.9l-40.52 0c1.64,-2.44 3.09,-4.38 4.84,-6.92 2.3,-3.32 14.17,-19.6 14.77,-21.84zm-58.82 0c2.52,1.69 15.38,20.79 18.16,24.97 1.04,1.56 1.85,2.44 2.75,3.79l-39.87 0c0.59,-2.21 11.16,-17.07 13.98,-21.31 1.92,-2.89 3.37,-4.43 4.97,-7.45zm187.58 -4.57l39.87 0c-2.02,3.81 -17.79,27.1 -20.26,28.76 -1.43,-2.7 -2.87,-4.66 -4.67,-7.09 -1.86,-2.5 -3.17,-4.89 -5.03,-7.39 -3.49,-4.69 -6.69,-9.47 -9.9,-14.28zm-38.56 28.1l-1.31 0c-0.87,-3.24 -17.94,-24.32 -18.96,-28.1l39.22 0c-2.52,4.75 -10.64,15.23 -14.38,20.92 -1.33,2.02 -3.97,4.94 -4.57,7.19zm-79.74 -28.1l39.87 0 -14.77 21.17c-1.48,2.24 -4.24,5.38 -4.83,7.58l-12.54 -17.52c-2.28,-3.37 -5.78,-7.57 -7.72,-11.23zm-39.22 28.1c-1.76,-1.29 -19.07,-26.09 -19.61,-28.1l39.22 0c-1.31,2.47 -2.99,4.96 -4.58,7.19l-15.03 20.92zm-54.25 -6.54l0 -21.57 15.03 0 -11.11 16.34c-1.22,1.72 -2.26,4.01 -3.93,5.23zm240.53 150.98c5.31,0 11.11,4.78 11.11,9.8 0,7.51 -3.3,13.07 -11.11,13.07 -15.45,0 -14.86,-22.88 0,-22.88zm-21.57 10.46c0,13.75 10.36,23.08 21.51,22.76 28.55,-0.82 28.65,-42.25 0.54,-43.32 -11.17,-0.43 -22.05,9.14 -22.05,20.56zm21.57 37.26c5.49,0 11.11,4.78 11.11,9.8l0 3.27c0,5.03 -5.62,9.8 -11.11,9.8 -15.07,0 -15.07,-22.88 0,-22.88zm-21.57 10.46c0,30.22 43.14,29.24 43.14,0.65 0,-16.18 -20.11,-29.41 -36.43,-15.51 -3.2,2.73 -6.71,9.07 -6.71,14.86zm-203.27 -58.17c5.81,0 11.76,4.54 11.76,9.8l0 3.27c0,11.84 -22.18,14.32 -22.65,-1.38 -0.18,-5.94 4.82,-11.69 10.88,-11.69zm-20.92 9.15c0,7.33 0.66,12.81 7.02,18.48 3,2.68 9.55,6 15.04,5.55 6.16,-0.5 11.09,-2.83 14.59,-6.34 13.12,-13.16 5.17,-35.08 -13.56,-36.85 -12.54,-1.19 -23.08,10.05 -23.08,19.17zm21.57 38.56c5.49,0 11.11,4.78 11.11,9.8l0 3.27c0,5.03 -5.81,9.8 -11.11,9.8 -15.2,0 -15.2,-22.88 0,-22.88zm-21.57 9.15c0,7.02 0.92,13.45 7.08,18.41 16.3,13.13 36.06,0.32 36.06,-15.8 0,-16.84 -19.11,-29.58 -35.69,-16.74 -3.14,2.43 -7.45,8.9 -7.45,14.12z"/>
 </g>
</svg>
